<?xml version="1.0" encoding="UTF-8"?>
<svg xmlns="http://www.w3.org/2000/svg" xmlns:xlink="http://www.w3.org/1999/xlink" width="px" height="px" viewBox="0 0 1103 2000" version="1.1">
<g id="surface1">
<path style=" stroke:none;fill-rule:nonzero;fill:rgb(45.490196%,67.45098%,87.45098%);fill-opacity:1;" d="M 66.625 1004 C 70.625 1012.25 79.226562 1033.050781 77.875 1041.648438 C 75.824219 1054.449219 95.925781 1070.300781 99.425781 1083.25 C 102.226562 1093.5 122.125 1106.851562 112.925781 1115.199219 C 104.476562 1122.851562 90.574219 1125.550781 95.324219 1139.398438 C 98.425781 1148.449219 94.976562 1167.449219 101.675781 1174 C 91.125 1174.351562 88.976562 1178.75 96.523438 1187.5 C 100.273438 1191.851562 108.726562 1210.800781 95.625 1206.398438 C 97.175781 1214.75 111.273438 1217.199219 106.273438 1227.050781 C 103.175781 1233.199219 102.675781 1242.351562 103.976562 1249.25 C 107.226562 1266.25 126.476562 1283.648438 124.523438 1302.398438 C 123.375 1313.25 136.273438 1324.300781 142.175781 1332.25 C 149.125 1341.601562 139.523438 1338.449219 134.023438 1342.351562 C 125.175781 1348.601562 134.476562 1353.898438 136.773438 1360.101562 C 139.773438 1368.300781 140.074219 1378.601562 142.875 1387.25 C 146.523438 1398.601562 151.023438 1402.949219 162.773438 1405 C 168.925781 1406.050781 177.375 1410.949219 170.675781 1416.949219 C 158.074219 1428.25 192.875 1434.449219 185.875 1442.398438 C 180.273438 1448.75 190.273438 1452.050781 194.273438 1457.75 C 197.425781 1462.25 190.125 1466.449219 191.375 1471.199219 C 193.074219 1474.148438 194.824219 1477.050781 196.625 1479.949219 C 203.773438 1497.648438 232.976562 1479.199219 239.375 1497.300781 C 238.523438 1494.898438 236.523438 1510.449219 238.125 1509 C 233.675781 1513.550781 192.476562 1510.648438 198.925781 1517.699219 C 206.625 1526.148438 218.574219 1519.800781 227.074219 1525.851562 C 233.023438 1530.101562 238.875 1534.800781 244.125 1539.898438 C 250.125 1545.699219 249.023438 1545.851562 245.875 1552.550781 C 242.175781 1560.5 240.476562 1557.199219 235.175781 1562.101562 C 228.925781 1567.851562 238.425781 1581.300781 244.273438 1583 C 252.476562 1585.351562 247.976562 1599.550781 240.523438 1599.898438 C 249.023438 1606.101562 269.574219 1624.949219 263.625 1637.050781 C 262.175781 1640 258.925781 1641.5 257.675781 1644.5 C 255.875 1648.75 260.074219 1652 259.875 1656.050781 C 259.574219 1662.398438 266.925781 1662.949219 269.625 1669 C 256.375 1666.949219 254.574219 1693.800781 254.523438 1701.351562 C 254.476562 1712.351562 255.773438 1716.5 264.925781 1722.949219 C 269.425781 1726.148438 278.675781 1734.101562 277.824219 1740.398438 C 277.074219 1746.101562 263.226562 1746.601562 268.476562 1753.601562 C 273.023438 1759.648438 279.375 1770.851562 273.476562 1777.699219 C 270.476562 1781.199219 264.773438 1778.898438 261.875 1782.101562 C 258.625 1785.699219 261.023438 1789.050781 259.726562 1793.101562 C 257.476562 1800.199219 256.773438 1805.550781 247.625 1804.050781 C 248.476562 1809.699219 246.773438 1815.5 248.773438 1821.050781 C 250.574219 1825.949219 256.273438 1827.699219 258.074219 1832.550781 C 259.324219 1836 257.925781 1840.101562 259.675781 1843.300781 C 261.824219 1847.351562 264.375 1847.5 265.175781 1852.351562 C 266.625 1861.550781 284.726562 1867.699219 289.226562 1876.75 C 291.476562 1881.300781 301.726562 1900.449219 308.925781 1896.300781 C 312.324219 1894.351562 314.425781 1889.550781 318.425781 1888.550781 C 323.824219 1887.199219 328.476562 1890.648438 333.875 1888.199219 C 340.726562 1885.050781 349.375 1897.101562 352.175781 1901.75 C 356.675781 1909.25 350.175781 1917.300781 358.574219 1923.398438 C 364.925781 1928 369.523438 1940 364.523438 1947.351562 C 380.425781 1949.351562 390.675781 1966.449219 402.925781 1974.101562 C 410.773438 1979 429.925781 1975.300781 439.023438 1975.300781 L 471.476562 1975.300781 C 495.875 1975.300781 521.226562 1978.25 544.726562 1985.101562 C 554.074219 1987.800781 562.976562 1993.148438 572.773438 1994.148438 C 578.226562 1994.75 585.625 1994.5 588.875 2000 C 582.726562 1984.601562 568.476562 1976.898438 555.175781 1966.351562 C 548.324219 1960.898438 541.375 1948.800781 532.375 1954.101562 C 529.574219 1955.75 514.226562 1949.601562 507.675781 1951.75 C 513.925781 1946.601562 539.175781 1953.75 532.925781 1941.550781 C 528.875 1933.601562 512.773438 1903.300781 501.625 1917.148438 C 510.226562 1901.851562 499.625 1892.101562 504.574219 1877 C 508.226562 1865.800781 524.175781 1866.351562 525.773438 1856.25 C 516.675781 1854.300781 510.773438 1848.949219 503.074219 1847.851562 C 505.324219 1847.648438 507.273438 1847.199219 508.175781 1845.800781 C 511.625 1840.5 501.175781 1832.5 497.226562 1831 C 512.675781 1833.800781 518.425781 1861.101562 536.375 1855.398438 C 560.773438 1847.601562 542.824219 1819.300781 542.273438 1802.949219 C 541.425781 1807.398438 537.925781 1809.851562 533.425781 1809.050781 C 538.625 1804.851562 538.023438 1799.25 537.773438 1793.351562 C 537.425781 1785.949219 541.023438 1782.398438 544.675781 1776.398438 C 550.125 1767.5 555.773438 1760.449219 563.125 1753.199219 C 568.726562 1747.648438 586.925781 1724.25 595.976562 1726.101562 C 593.523438 1721.851562 595.074219 1719.050781 599.875 1718.5 C 595.175781 1713.25 591.976562 1707.851562 584.425781 1708 C 597.074219 1698.5 591.726562 1672.75 576.226562 1663.550781 C 561.824219 1655 543.476562 1664 528.273438 1657.351562 C 516.375 1652.101562 507.175781 1642.601562 496.523438 1635.398438 C 474.875 1620.75 455.976562 1609.351562 461.476562 1580.550781 C 464.726562 1563.351562 470.976562 1535.101562 494.523438 1540.050781 C 482.824219 1520.25 537.375 1531.300781 538.976562 1523.550781 C 540.425781 1516.449219 526.726562 1515 527.726562 1506 C 528.324219 1500.601562 534.226562 1498.75 538.523438 1497.648438 C 541.523438 1496.851562 540.523438 1489.351562 540.875 1487.300781 C 540.726562 1482.898438 538.976562 1479.199219 535.726562 1476.199219 C 534.925781 1472.949219 535.023438 1469.75 535.925781 1466.550781 C 535.476562 1461.800781 531.675781 1457.351562 529.023438 1453.699219 C 526.574219 1450.398438 524.976562 1447.75 524.125 1445.300781 L 62.625 984 C 62.625 991.398438 64.324219 999.25 66.625 1004 Z M 573.324219 1711.601562 C 571.625 1712.050781 569.875 1712.101562 567.925781 1711.351562 C 569.824219 1711.550781 571.625 1711.648438 573.324219 1711.601562 Z M 495.976562 1848.101562 C 494.425781 1848.398438 492.824219 1848.898438 491.074219 1849.601562 C 492.273438 1848.648438 494.023438 1848.25 495.976562 1848.101562 Z M 495.976562 1848.101562 "/>
<path style=" stroke:none;fill-rule:nonzero;fill:rgb(45.490196%,67.45098%,87.45098%);fill-opacity:1;" d="M 850.824219 1001.75 C 852.226562 996.050781 852.425781 990.351562 850.324219 984.898438 C 848.574219 980.449219 844.925781 955.601562 836.675781 959.050781 C 815.726562 967.800781 792.476562 932.351562 800.175781 914.800781 C 810.875 890.398438 783.226562 874.949219 763.476562 865.800781 C 751.375 860.199219 740.125 854.75 728.824219 847.648438 C 718.425781 841.148438 717.476562 832 708.773438 824.949219 C 727.925781 825.949219 704.125 791.699219 701.175781 785.398438 C 695.925781 774.101562 702.574219 762.699219 701.523438 751.5 C 700.726562 742.898438 720.625 748.300781 711.773438 733.550781 C 706.726562 725.050781 699.773438 712.550781 703.074219 702.398438 C 706.675781 691.148438 700.023438 686.949219 698.125 675.851562 C 695.875 662.898438 702.726562 660.648438 703.773438 648.75 C 704.625 639.351562 694.824219 645.550781 699.675781 635.800781 C 702.074219 631 703.125 625.101562 702.574219 619.699219 C 702.074219 614.351562 698.625 609.25 698.925781 603.800781 C 699.175781 599.199219 703.925781 600.351562 703.324219 594.5 C 702.125 582.75 688.824219 579.199219 701.226562 568.148438 C 705.574219 564.25 707.726562 560.25 705.476562 554.398438 C 709.523438 553.699219 712.824219 551.648438 714.976562 548.148438 C 719.023438 541.550781 718.425781 530.300781 726.726562 527 C 745.175781 519.601562 747.726562 490.800781 757.625 476.699219 C 763.273438 468.601562 783.175781 427.101562 793.273438 437.550781 C 795.523438 433.101562 793.523438 429.199219 788.925781 427.648438 C 793.375 422.25 799.726562 418.601562 804.675781 413.699219 C 808.074219 410.351562 808.773438 404.851562 812.726562 402.300781 C 819.523438 397.898438 830.625 397 831.523438 386.949219 C 832.125 380.351562 848.425781 374.648438 853.375 372.648438 C 863.273438 368.601562 869.125 361.75 878.226562 356.601562 C 880.675781 355 883.273438 354.699219 885.976562 355.75 C 886.675781 351.398438 887.375 347.050781 888.125 342.699219 C 889.425781 334.050781 887.273438 326.351562 887.023438 317.800781 C 886.574219 301.398438 885.023438 292.75 879.425781 277.5 C 875.476562 266.699219 873.023438 254.199219 860.976562 249.949219 C 854.023438 247.5 840.875 246.5 839.324219 256.449219 C 832.523438 252.148438 824.675781 247.851562 827.925781 260.351562 C 831.125 272.601562 831.324219 286.148438 829.523438 298.648438 C 828.625 304.898438 830.074219 322.648438 822.523438 321.398438 C 821.324219 321.199219 811.125 335.949219 811.425781 337.449219 C 812.273438 342.199219 795.023438 341.351562 792.023438 349.5 C 789.425781 356.601562 791.074219 369.449219 780.476562 370.851562 C 773.773438 371.75 769.773438 362.898438 762.023438 364 C 751.925781 365.398438 751.375 375.75 747.773438 383.199219 C 742.625 381.25 735.925781 370.949219 729.675781 375.449219 C 723.125 380.101562 720.125 370.398438 713.824219 372.449219 C 693.625 379 674.324219 366.898438 653.675781 362.898438 C 642.023438 360.648438 630.074219 360.699219 618.875 365.050781 C 614.726562 355.800781 617.425781 358.550781 619.425781 350.800781 C 623.375 335.25 636.976562 329.601562 633.773438 311.300781 C 630.273438 291.300781 645.476562 286.851562 648.375 269.851562 C 650.324219 258.449219 664.726562 248.050781 657.125 238.199219 C 653.273438 233.199219 648.925781 228.699219 645.023438 223.800781 C 639.523438 216.800781 629.726562 216.148438 622.375 211.75 C 614.726562 207.199219 611.523438 211.25 604.074219 204.300781 C 598.925781 199.550781 591.324219 198.898438 584.925781 196.851562 C 563.175781 189.851562 547.824219 170.75 528.125 160.601562 C 520.523438 156.699219 513.976562 148.351562 504.824219 148.351562 C 492.726562 148.351562 485.574219 145.5 474.675781 141.148438 C 466.574219 137.949219 456.925781 138.300781 449.925781 132.5 C 442.375 126.25 438.425781 117.898438 430.226562 112 C 415.875 101.699219 397.425781 91.800781 386.375 77.75 C 381.625 71.699219 377.273438 64.699219 373.925781 57.75 C 369.675781 48.898438 364.925781 47.949219 358.125 41.148438 C 352.226562 35.25 336.074219 25.648438 333.824219 17.601562 C 332.175781 11.648438 320.523438 14.5 315.273438 14.5 C 306.375 14.5 296.375 12.800781 287.625 14.949219 C 282.875 16.101562 275.324219 15.300781 271.273438 16.898438 C 265.976562 19 262.375 37.5 260.175781 42.648438 C 256.074219 52.25 256.324219 61.898438 255.273438 72.101562 C 239.125 49.550781 240.425781 25.449219 208.726562 20.601562 C 195.425781 18.550781 180.425781 25.75 167.675781 20.101562 C 156.574219 15.101562 150.273438 2.5 137.875 0 C 136.074219 18.449219 135.226562 20.050781 119.824219 27.75 C 110.726562 32.300781 114.773438 43.148438 105.074219 47.199219 C 101.523438 48.699219 92.925781 62.601562 91.925781 66.949219 C 91.023438 70.851562 100.675781 76.550781 102.273438 80.25 C 104.574219 85.648438 100.875 94.5 99.976562 99.898438 C 97.773438 113.550781 98.726562 130.800781 93.175781 143.648438 C 87.675781 156.398438 69.023438 161 57.476562 166.148438 C 47.574219 170.550781 40.074219 177.148438 35.175781 186.101562 Z M 850.824219 1001.75 "/>
<path style=" stroke:none;fill-rule:nonzero;fill:rgb(100%,100%,100%);fill-opacity:1;" d="M 526.773438 1428.101562 C 531.476562 1417.300781 530.976562 1411.75 543.125 1406.75 C 549.273438 1404.199219 557.425781 1401.699219 558.625 1394.050781 C 544.574219 1397.601562 504.523438 1384.351562 528.824219 1368.101562 C 537.976562 1361.949219 548.273438 1364.949219 555.726562 1372.449219 C 560.273438 1377 558.824219 1387.5 568.023438 1388.601562 C 573.574219 1389.300781 586.375 1387.699219 589.875 1382.550781 C 594.925781 1375.148438 585.773438 1364.550781 584.375 1357.300781 C 582.875 1349.5 573.625 1337 564.625 1337.550781 C 555.925781 1338.101562 550.925781 1347.75 541.523438 1346.300781 C 545.925781 1348.699219 558.925781 1348.949219 560.476562 1354.949219 C 562.375 1362.25 534.226562 1359.101562 531.175781 1358.351562 C 536.824219 1345.949219 516.773438 1344.398438 509.476562 1341.601562 C 495.175781 1336.148438 494.875 1320.199219 492.425781 1307.300781 C 489.425781 1291.398438 469.773438 1279.699219 470.375 1263.601562 C 470.574219 1258 473.675781 1251.398438 478.875 1248.699219 C 482.773438 1246.648438 495.625 1251.101562 483.375 1253.5 C 512.925781 1257.949219 537.574219 1278.300781 567.625 1275.601562 C 590.273438 1273.550781 617.675781 1269.449219 622.175781 1242.550781 C 614.824219 1246.5 617.523438 1238.851562 612.273438 1234.101562 C 608.824219 1231 604.625 1228.449219 601.625 1224.851562 C 597.523438 1219.898438 603.175781 1215.101562 603.375 1209.550781 C 603.625 1202.699219 601.726562 1195.949219 600.226562 1189.351562 C 610.324219 1194.75 609.324219 1183.898438 608.175781 1177.351562 C 606.574219 1168.25 603.074219 1164.5 595.824219 1159.148438 C 611.625 1165.300781 586.625 1146.800781 585.574219 1144.648438 C 583.625 1140.800781 587.375 1134.050781 583.976562 1130.949219 C 580.925781 1128.398438 578.425781 1125.351562 576.625 1121.800781 C 589.773438 1123.5 599.074219 1132.25 612.773438 1133.5 C 624.824219 1134.601562 635.074219 1134.851562 647.324219 1134.300781 C 679.074219 1132.851562 709.023438 1123.800781 739.976562 1117.550781 C 765.625 1112.351562 790.324219 1104.5 811.824219 1089.148438 C 823.726562 1080.648438 822.476562 1076.851562 822.875 1063.949219 C 823.273438 1051.800781 836.125 1036.199219 841.125 1025.199219 C 844.324219 1018.101562 848.773438 1010 850.824219 1001.75 L 808.273438 959.199219 L 35.175781 186.050781 C 33.574219 188.898438 32.273438 192.050781 31.226562 195.398438 C 29.425781 201.25 41.773438 215.25 44.074219 221.199219 C 21.023438 222 47.976562 270.199219 51.375 279.601562 C 56.175781 292.800781 40.875 301.25 49.523438 314.851562 C 57.125 326.800781 80.523438 340.601562 57.824219 351.050781 C 52.476562 353.5 46.074219 349.351562 42.675781 354.550781 C 39.226562 359.75 37.824219 366.5 36.523438 372.5 C 33.875 384.75 33.925781 396.800781 28.925781 408.550781 C 21.175781 426.601562 9.375 435.398438 8.476562 456.699219 C 8.175781 464.199219 12.226562 474.5 10.523438 481.5 C 9.273438 486.601562 2.976562 487.949219 1.925781 493.449219 C -3.976562 503.050781 13.324219 529.5 17.023438 539.5 C 19.523438 546.351562 26.523438 578.398438 7.976562 566 C 15.574219 574.601562 4.824219 594 6.976562 604.601562 C 9.925781 619.050781 -0.425781 614 0.175781 627.601562 C 0.675781 638.648438 4.425781 657.101562 15.625 662.800781 C 20.324219 665.199219 33.925781 682 21.675781 676.351562 C 25.375 689.300781 38.324219 697.300781 42.324219 710.148438 C 44.125 716 42.273438 719.949219 47.976562 724.101562 C 52.375 727.300781 57.074219 729.699219 56.074219 736.148438 C 54.824219 744.449219 53.125 748 59.074219 755.449219 C 67.226562 765.601562 63.625 755.949219 69.574219 757.851562 C 80.023438 761.25 75.273438 791.851562 78.976562 800.699219 C 79.773438 802.601562 93.226562 826.449219 83.726562 824.75 C 73.925781 823 72.324219 853.148438 72.976562 859.648438 C 73.625 866.25 74.925781 873 74.226562 879.699219 C 73.476562 886.5 66.023438 883.851562 66.074219 889.851562 C 66.074219 890.601562 72.773438 895 73.574219 896.648438 C 76.875 903.300781 80.425781 909.851562 83.375 916.648438 C 86.824219 924.75 90.023438 934.25 89.273438 943.199219 C 88.976562 946.949219 82.976562 948.5 80.675781 951.050781 C 77.824219 954.25 78.226562 959.699219 76.523438 963.5 C 74.273438 968.5 70.875 964.101562 67.125 968.199219 C 63.925781 971.75 62.625 977.75 62.625 984.101562 L 523.976562 1445.449219 C 522.023438 1440.050781 523.425781 1435.800781 526.773438 1428.101562 Z M 526.773438 1428.101562 "/>
<path style="fill-rule:nonzero;fill:rgb(96.470588%,70.588235%,5.490196%);fill-opacity:1;stroke-width:4.552;stroke-linecap:butt;stroke-linejoin:miter;stroke:rgb(52.156863%,20.392157%,3.921569%);stroke-opacity:1;stroke-miterlimit:4;" d="M 457.299888 1123.598788 C 455.503013 1171.903475 485.198325 1198.403475 481.299888 1241.497225 C 477.40145 1284.598788 501.096763 1308.997225 506.596763 1325.70035 C 512.096763 1342.497225 500.698325 1352.497225 505.596763 1354.903475 C 510.503013 1357.301913 521.299888 1343.997225 517.799888 1320.20035 C 514.299888 1296.403475 496.198325 1289.301913 500.503013 1236.70035 C 504.698325 1184.098788 479.003013 1171.801913 485.198325 1123.801913 M 428.40145 1013.497225 L 574.096763 1330.801913 C 574.096763 1330.801913 576.596763 1336.903475 580.698325 1335.20035 C 584.698325 1333.497225 582.198325 1327.497225 582.198325 1327.497225 L 460.799888 1000.098787 " transform="matrix(0.5,0,0,0.5,166.59615,421.60295)"/>
<path style="fill-rule:nonzero;fill:rgb(96.470588%,70.588235%,5.490196%);fill-opacity:1;stroke-width:4.552;stroke-linecap:butt;stroke-linejoin:miter;stroke:rgb(52.156863%,20.392157%,3.921569%);stroke-opacity:1;stroke-miterlimit:4;" d="M 429.897525 1117.89865 C 409.803775 1161.797088 427.10065 1197.703338 406.999087 1236.000213 C 386.897525 1274.297088 399.499087 1305.89865 398.10065 1323.500213 C 396.803775 1341.101775 382.397525 1346.000213 385.999087 1350.101775 C 389.60065 1354.203338 404.702212 1346.101775 410.499087 1322.703338 C 416.397525 1299.297088 402.397525 1285.89865 426.397525 1238.89865 C 450.499087 1191.89865 431.303775 1170.703338 455.499087 1128.703338 M 445.303775 1005.203337 L 458.397525 1354.101775 C 458.397525 1354.101775 458.397525 1360.703338 462.803775 1360.703338 C 467.202212 1360.703338 467.202212 1354.101775 467.202212 1354.101775 L 480.303775 1005.203337 " transform="matrix(0.5,0,0,0.5,157.4653,422.41005)"/>
<path style="fill-rule:nonzero;fill:rgb(96.470588%,70.588235%,5.490196%);fill-opacity:1;stroke-width:4.552;stroke-linecap:butt;stroke-linejoin:miter;stroke:rgb(52.156863%,20.392157%,3.921569%);stroke-opacity:1;stroke-miterlimit:4;" d="M 405.502988 1088.2003 C 370.096738 1121.098737 372.299863 1160.801862 339.096738 1188.598737 C 305.901425 1216.301862 305.401425 1250.301862 297.401425 1265.997175 C 289.401425 1281.7003 274.299863 1280.7003 276.096738 1285.903425 C 277.901425 1291.098737 294.901425 1289.301862 309.299863 1269.997175 C 323.6983 1250.7003 315.901425 1232.903425 356.096738 1198.7003 C 396.299863 1164.497175 386.799863 1137.598737 425.1983 1108.098737 M 462.901425 989.997175 L 341.502988 1317.403425 C 341.502988 1317.403425 339.002988 1323.497175 343.002988 1325.098737 C 347.002988 1326.801862 349.596738 1320.7003 349.596738 1320.7003 L 495.299863 1003.403425 " transform="matrix(0.5,0,0,0.5,149.33835,426.64985)"/>
<path style="fill-rule:nonzero;fill:rgb(96.470588%,70.588235%,5.490196%);fill-opacity:1;stroke-width:4.552;stroke-linecap:butt;stroke-linejoin:miter;stroke:rgb(52.156863%,20.392157%,3.921569%);stroke-opacity:1;stroke-miterlimit:4;" d="M 387.797925 1039.099025 C 342.50105 1055.903712 329.399488 1093.497462 288.102613 1106.403712 C 246.797925 1119.30215 233.297925 1150.497462 220.00105 1161.997462 C 206.602613 1173.497462 193.00105 1166.80215 192.696363 1172.200587 C 192.399488 1177.700587 208.696363 1182.599025 229.399488 1170.200587 C 250.102613 1157.80215 249.696363 1138.403712 299.899488 1122.200587 C 350.196363 1105.997462 351.602613 1077.497462 398.399488 1064.903712 M 478.50105 970.30215 L 241.102613 1226.30215 C 241.102613 1226.30215 236.50105 1230.903712 239.50105 1233.997462 C 242.602613 1237.099025 247.196363 1232.497462 247.196363 1232.497462 L 503.196363 995.099025 " transform="matrix(0.5,0,0,0.5,143.4526,433.67705)"/>
<path style=" stroke:none;fill-rule:nonzero;fill:rgb(52.156863%,20.392157%,3.921569%);fill-opacity:1;" d="M 384.84375 926.894531 L 434.742188 1035.84375 L 392.941406 923.542969 M 399.941406 987.492188 C 401.09375 1010.644531 414.242188 1020.945312 411.640625 1042.042969 C 417.292969 1025.34375 403.640625 1012.394531 404.441406 987.742188 "/>
<path style=" stroke:none;fill-rule:nonzero;fill:rgb(52.156863%,20.392157%,3.921569%);fill-opacity:1;" d="M 384.421875 925.222656 L 388.824219 1044.972656 L 393.171875 925.222656 M 375.171875 986.921875 C 367.371094 1008.769531 375.574219 1023.269531 365.121094 1041.820312 C 376.773438 1028.570312 369.074219 1011.371094 379.222656 988.871094 "/>
<path style=" stroke:none;fill-rule:nonzero;fill:rgb(52.156863%,20.392157%,3.921569%);fill-opacity:1;" d="M 384.675781 923.511719 L 342.875 1035.8125 L 392.773438 926.8125 M 352.523438 976.960938 C 336.976562 994.160156 338.976562 1010.710938 322.226562 1023.8125 C 338.023438 1016.011719 337.523438 997.210938 355.523438 980.3125 "/>
<path style=" stroke:none;fill-rule:nonzero;fill:rgb(52.156863%,20.392157%,3.921569%);fill-opacity:1;" d="M 385.582031 922.011719 L 303.984375 1009.808594 L 391.785156 928.160156 M 335.382812 959.109375 C 314.433594 969.058594 309.984375 985.109375 289.484375 990.808594 C 307.082031 989.660156 313.832031 972.058594 336.882812 963.359375 "/>
<path style="fill-rule:nonzero;fill:rgb(96.470588%,70.588235%,5.490196%);fill-opacity:1;stroke-width:4.552;stroke-linecap:butt;stroke-linejoin:miter;stroke:rgb(52.156863%,20.392157%,3.921569%);stroke-opacity:1;stroke-miterlimit:4;" d="M 379.599913 977.797325 C 331.303038 976.00045 304.803038 1005.703575 261.701475 1001.797325 C 218.599913 997.898888 194.201475 1021.602013 177.49835 1027.102013 C 160.701475 1032.602013 150.701475 1021.203575 148.303038 1026.102013 C 145.896788 1031.00045 159.201475 1041.797325 182.99835 1038.297325 C 206.803038 1034.797325 213.896788 1016.703575 266.49835 1021.00045 C 319.099913 1025.203575 331.396788 999.50045 379.396788 1005.703575 M 489.701475 949.00045 L 172.396788 1094.703575 C 172.396788 1094.703575 166.303038 1097.203575 167.99835 1101.297325 C 169.701475 1105.297325 175.701475 1102.797325 175.701475 1102.797325 L 503.099913 981.398888 " transform="matrix(0.5,0,0,0.5,140.70395,442.42165)"/>
<path style="fill-rule:nonzero;fill:rgb(96.470588%,70.588235%,5.490196%);fill-opacity:1;stroke-width:4.552;stroke-linecap:butt;stroke-linejoin:miter;stroke:rgb(52.156863%,20.392157%,3.921569%);stroke-opacity:1;stroke-miterlimit:4;" d="M 382.001337 913.902812 C 338.1029 893.80125 302.19665 911.098125 263.899775 890.996562 C 225.6029 870.902812 194.001337 883.496562 176.399775 882.098125 C 158.798212 880.80125 153.899775 866.402812 149.798212 869.996562 C 145.69665 873.598125 153.798212 888.699687 177.19665 894.496562 C 200.6029 900.402812 214.001337 886.402812 261.001337 910.402812 C 308.001337 934.496562 329.19665 915.30125 371.19665 939.496562 M 494.798212 929.402812 L 145.899775 942.496562 C 145.899775 942.496562 139.298212 942.496562 139.298212 946.902812 C 139.298212 951.30125 145.899775 951.30125 145.899775 951.30125 L 494.798212 964.402812 " transform="matrix(0.5,0,0,0.5,141.51105,451.5525)"/>
<path style="fill-rule:nonzero;fill:rgb(96.470588%,70.588235%,5.490196%);fill-opacity:1;stroke-width:4.552;stroke-linecap:butt;stroke-linejoin:miter;stroke:rgb(52.156863%,20.392157%,3.921569%);stroke-opacity:1;stroke-miterlimit:4;" d="M 394.701425 857.000475 C 361.802987 821.602038 322.099862 823.79735 294.302987 790.602038 C 266.599862 757.398913 232.599862 756.898913 216.896737 748.898913 C 201.201425 740.898913 202.201425 725.79735 196.9983 727.602038 C 191.802987 729.398913 193.599862 746.398913 212.896737 760.79735 C 232.201425 775.2036 249.9983 767.398913 284.201425 807.602038 C 318.396737 847.79735 345.302987 838.29735 374.802987 876.7036 M 492.9983 914.500475 L 165.599862 793.102038 C 165.599862 793.102038 159.4983 790.602038 157.896737 794.602038 C 156.201425 798.602038 162.302987 801.2036 162.302987 801.2036 L 479.599862 946.898913 " transform="matrix(0.5,0,0,0.5,145.75085,459.67945)"/>
<path style="fill-rule:nonzero;fill:rgb(96.470588%,70.588235%,5.490196%);fill-opacity:1;stroke-width:4.552;stroke-linecap:butt;stroke-linejoin:miter;stroke:rgb(52.156863%,20.392157%,3.921569%);stroke-opacity:1;stroke-miterlimit:4;" d="M 415.803275 815.799188 C 398.998587 770.502313 361.397025 757.40075 348.498587 716.103875 C 335.60015 674.799188 304.397025 661.299188 292.897025 648.002313 C 281.397025 634.603875 288.10015 621.002313 282.701712 620.697625 C 277.201712 620.40075 272.303275 636.697625 284.701712 657.40075 C 297.10015 678.103875 316.498587 677.697625 332.701712 727.90075 C 348.897025 778.197625 377.397025 779.603875 389.998587 826.40075 M 484.60015 906.502313 L 228.60015 669.002313 C 228.60015 669.002313 223.998587 664.40075 220.897025 667.40075 C 217.803275 670.502313 222.397025 675.103875 222.397025 675.103875 L 459.803275 931.103875 " transform="matrix(0.5,0,0,0.5,152.77805,465.56525)"/>
<path style=" stroke:none;fill-rule:nonzero;fill:rgb(52.156863%,20.392157%,3.921569%);fill-opacity:1;" d="M 386.996094 920.976562 L 278.042969 970.875 L 390.394531 929.074219 M 326.394531 936.027344 C 303.246094 937.175781 292.945312 950.324219 271.84375 947.726562 C 288.542969 953.375 301.496094 939.726562 326.144531 940.527344 "/>
<path style=" stroke:none;fill-rule:nonzero;fill:rgb(52.156863%,20.392157%,3.921569%);fill-opacity:1;" d="M 388.671875 920.546875 L 268.921875 924.945312 L 388.671875 929.296875 M 326.972656 911.296875 C 305.121094 903.496094 290.621094 911.695312 272.070312 901.246094 C 285.320312 912.894531 302.523438 905.195312 325.023438 915.34375 "/>
<path style=" stroke:none;fill-rule:nonzero;fill:rgb(52.156863%,20.392157%,3.921569%);fill-opacity:1;" d="M 390.414062 920.792969 L 278.113281 878.992188 L 387.113281 928.894531 M 336.914062 888.644531 C 319.710938 873.09375 303.164062 875.09375 290.0625 858.34375 C 297.863281 874.144531 316.664062 873.644531 333.5625 891.644531 "/>
<path style=" stroke:none;fill-rule:nonzero;fill:rgb(52.156863%,20.392157%,3.921569%);fill-opacity:1;" d="M 391.910156 921.683594 L 304.109375 840.082031 L 385.710938 927.882812 M 354.8125 871.484375 C 344.859375 850.535156 328.8125 846.082031 323.109375 825.582031 C 324.261719 843.183594 341.859375 849.933594 350.5625 872.984375 "/>
<path style="fill-rule:nonzero;fill:rgb(96.470588%,70.588235%,5.490196%);fill-opacity:1;stroke-width:4.552;stroke-linecap:butt;stroke-linejoin:miter;stroke:rgb(52.156863%,20.392157%,3.921569%);stroke-opacity:1;stroke-miterlimit:4;" d="M 442.103138 796.598862 C 443.900013 748.301987 414.196888 721.801987 418.103138 678.700425 C 422.001575 635.598862 398.29845 611.200425 392.79845 594.4973 C 387.29845 577.700425 398.696888 567.700425 393.79845 565.301987 C 388.900013 562.90355 378.103138 576.200425 381.603138 599.9973 C 385.103138 623.801987 403.196888 630.90355 399.001575 683.4973 C 394.79845 736.098862 420.501575 748.40355 414.29845 796.40355 M 470.900013 906.700425 L 325.29845 589.301987 C 325.29845 589.301987 322.79845 583.200425 318.696888 584.90355 C 314.696888 586.598862 317.196888 592.598862 317.196888 592.598862 L 438.603138 919.9973 " transform="matrix(0.5,0,0,0.5,161.52265,468.31385)"/>
<path style="fill-rule:nonzero;fill:rgb(96.470588%,70.588235%,5.490196%);fill-opacity:1;stroke-width:4.552;stroke-linecap:butt;stroke-linejoin:miter;stroke:rgb(52.156863%,20.392157%,3.921569%);stroke-opacity:1;stroke-miterlimit:4;" d="M 469.396125 802.197437 C 489.497687 758.299 472.200812 722.400562 492.302375 684.103687 C 512.396125 645.799 499.802375 614.197437 501.200812 596.603687 C 502.497687 579.002125 516.896125 574.103687 513.302375 570.002125 C 509.700812 565.900562 494.59925 574.002125 488.802375 597.400562 C 482.896125 620.799 496.896125 634.197437 472.896125 681.197437 C 448.802375 728.197437 467.997687 749.400562 443.802375 791.400562 M 453.997687 915.002125 L 440.896125 566.103687 C 440.896125 566.103687 440.896125 559.502125 436.497687 559.502125 C 432.09925 559.502125 432.09925 566.103687 432.09925 566.103687 L 418.997687 915.002125 " transform="matrix(0.5,0,0,0.5,170.6535,467.50675)"/>
<path style="fill-rule:nonzero;fill:rgb(96.470588%,70.588235%,5.490196%);fill-opacity:1;stroke-width:4.552;stroke-linecap:butt;stroke-linejoin:miter;stroke:rgb(52.156863%,20.392157%,3.921569%);stroke-opacity:1;stroke-miterlimit:4;" d="M 493.798375 831.9036 C 529.196813 798.99735 527.0015 759.302037 560.196813 731.49735 C 593.399938 703.802037 593.899938 669.802037 601.899938 654.098912 C 609.899938 638.4036 625.0015 639.4036 623.196813 634.200475 C 621.399938 628.99735 604.399938 630.802037 590.0015 650.098912 C 575.603063 669.4036 583.399938 687.200475 543.196813 721.4036 C 503.0015 755.598912 512.5015 782.49735 474.103063 811.99735 M 436.399938 930.200475 L 557.798375 602.802037 C 557.798375 602.802037 560.298375 596.700475 556.298375 595.098912 C 552.298375 593.4036 549.696813 599.49735 549.696813 599.49735 L 404.103063 916.802037 " transform="matrix(0.5,0,0,0.5,178.7805,463.26695)"/>
<path style="fill-rule:nonzero;fill:rgb(96.470588%,70.588235%,5.490196%);fill-opacity:1;stroke-width:4.552;stroke-linecap:butt;stroke-linejoin:miter;stroke:rgb(52.156863%,20.392157%,3.921569%);stroke-opacity:1;stroke-miterlimit:4;" d="M 511.503438 881.098525 C 556.800313 864.30165 569.901875 826.700087 611.19875 813.80165 C 652.503438 800.903212 666.003438 769.700087 679.300313 758.200087 C 692.69875 746.700087 706.300313 753.403212 706.597188 747.996962 C 706.901875 742.496962 690.597188 737.598525 669.901875 749.996962 C 649.19875 762.403212 649.597188 781.80165 599.401875 797.996962 C 549.097188 814.200087 547.69875 842.700087 500.901875 855.30165 M 420.800313 949.903212 L 658.19875 693.903212 C 658.19875 693.903212 662.800313 689.30165 659.800313 686.200087 C 656.69875 683.098525 652.097188 687.700087 652.097188 687.700087 L 396.097188 925.098525 " transform="matrix(0.5,0,0,0.5,184.66625,456.2398)"/>
<path style=" stroke:none;fill-rule:nonzero;fill:rgb(52.156863%,20.392157%,3.921569%);fill-opacity:1;" d="M 392.925781 923.074219 L 343.027344 814.125 L 384.828125 926.472656 M 377.878906 862.523438 C 376.726562 839.375 363.578125 829.074219 366.175781 807.972656 C 360.527344 824.671875 374.175781 837.625 373.378906 862.273438 "/>
<path style=" stroke:none;fill-rule:nonzero;fill:rgb(52.156863%,20.392157%,3.921569%);fill-opacity:1;" d="M 393.347656 924.796875 L 388.945312 805.046875 L 384.597656 924.796875 M 402.597656 863.046875 C 410.398438 841.195312 402.195312 826.695312 412.648438 808.144531 C 400.996094 821.394531 408.695312 838.597656 398.546875 861.097656 "/>
<path style=" stroke:none;fill-rule:nonzero;fill:rgb(52.156863%,20.392157%,3.921569%);fill-opacity:1;" d="M 393.09375 926.503906 L 434.894531 814.207031 L 384.992188 923.207031 M 425.242188 873.003906 C 440.792969 855.804688 438.792969 839.253906 455.542969 826.15625 C 439.742188 833.957031 440.242188 852.753906 422.242188 869.65625 "/>
<path style=" stroke:none;fill-rule:nonzero;fill:rgb(52.156863%,20.392157%,3.921569%);fill-opacity:1;" d="M 392.183594 928.007812 L 473.785156 840.207031 L 386.035156 921.804688 M 442.386719 890.90625 C 463.335938 880.957031 467.785156 864.90625 488.285156 859.207031 C 470.683594 860.355469 463.933594 877.957031 440.886719 886.65625 "/>
<path style="fill-rule:nonzero;fill:rgb(96.470588%,70.588235%,5.490196%);fill-opacity:1;stroke-width:4.552;stroke-linecap:butt;stroke-linejoin:miter;stroke:rgb(52.156863%,20.392157%,3.921569%);stroke-opacity:1;stroke-miterlimit:4;" d="M 519.70155 942.298863 C 567.998425 944.10355 594.498425 914.400425 637.599987 918.298863 C 680.70155 922.1973 705.099987 898.501988 721.803112 893.001988 C 738.599987 887.501988 748.599987 898.900425 750.998425 894.001988 C 753.396862 889.10355 740.099987 878.298863 716.303112 881.798863 C 692.498425 885.298863 685.396862 903.400425 632.803112 899.1973 C 580.20155 895.001988 567.896862 920.6973 519.896862 914.501988 M 409.70155 971.1973 L 726.998425 825.501988 C 726.998425 825.501988 733.099987 823.001988 731.396862 818.900425 C 729.70155 814.900425 723.70155 817.400425 723.70155 817.400425 L 396.303112 938.798863 " transform="matrix(0.5,0,0,0.5,187.41485,447.4951)"/>
<path style="fill-rule:nonzero;fill:rgb(96.470588%,70.588235%,5.490196%);fill-opacity:1;stroke-width:4.552;stroke-linecap:butt;stroke-linejoin:miter;stroke:rgb(52.156863%,20.392157%,3.921569%);stroke-opacity:1;stroke-miterlimit:4;" d="M 517.300025 1006.201087 C 561.198463 1026.30265 597.0969 1008.997962 635.401588 1029.099525 C 673.698463 1049.201088 705.300025 1036.599525 722.901588 1037.997963 C 740.50315 1039.30265 745.401588 1053.701088 749.50315 1050.099525 C 753.5969 1046.497963 745.50315 1031.3964 722.0969 1025.599525 C 698.698463 1019.701087 685.300025 1033.701088 638.300025 1009.701087 C 591.300025 985.599525 570.0969 1004.80265 528.0969 980.599525 M 404.5969 990.80265 L 753.50315 977.701087 C 753.50315 977.701087 760.0969 977.701087 760.0969 973.30265 C 760.0969 968.8964 753.50315 968.8964 753.50315 968.8964 L 404.5969 955.80265 " transform="matrix(0.5,0,0,0.5,186.6078,438.3643)"/>
<path style="fill-rule:nonzero;fill:rgb(96.470588%,70.588235%,5.490196%);fill-opacity:1;stroke-width:4.552;stroke-linecap:butt;stroke-linejoin:miter;stroke:rgb(52.156863%,20.392157%,3.921569%);stroke-opacity:1;stroke-miterlimit:4;" d="M 504.600037 1063.103425 C 537.498475 1098.501863 577.2016 1096.298738 604.998475 1129.501863 C 632.7016 1162.697175 666.7016 1163.197175 682.396912 1171.197175 C 698.100037 1179.197175 697.100037 1194.298738 702.303162 1192.501863 C 707.498475 1190.697175 705.7016 1173.697175 686.396912 1159.298738 C 667.100037 1144.9003 649.303162 1152.697175 615.100037 1112.501863 C 580.896912 1072.298738 553.998475 1081.798738 524.498475 1043.4003 M 406.303162 1005.697175 L 733.7016 1127.103425 C 733.7016 1127.103425 739.803162 1129.603425 741.396912 1125.603425 C 743.100037 1121.603425 736.998475 1119.001863 736.998475 1119.001863 L 419.7016 973.4003 " transform="matrix(0.5,0,0,0.5,182.36795,430.23735)"/>
<path style="fill-rule:nonzero;fill:rgb(96.470588%,70.588235%,5.490196%);fill-opacity:1;stroke-width:4.552;stroke-linecap:butt;stroke-linejoin:miter;stroke:rgb(52.156863%,20.392157%,3.921569%);stroke-opacity:1;stroke-miterlimit:4;" d="M 483.498187 1104.2969 C 500.302875 1149.601588 537.896625 1162.70315 550.802875 1204.000025 C 563.701312 1245.2969 594.896625 1258.7969 606.396625 1272.101588 C 617.896625 1285.500025 611.201312 1299.101588 616.59975 1299.398463 C 622.09975 1299.70315 626.998187 1283.398463 614.59975 1262.70315 C 602.201312 1242.000025 582.802875 1242.398463 566.59975 1192.20315 C 550.396625 1141.898463 521.896625 1140.500025 509.302875 1093.70315 M 414.701312 1013.70315 L 670.701312 1251.101588 C 670.701312 1251.101588 675.302875 1255.70315 678.396625 1252.70315 C 681.498187 1249.601588 676.896625 1245.000025 676.896625 1245.000025 L 439.498187 989.000025 " transform="matrix(0.5,0,0,0.5,175.34075,424.35155)"/>
<path style=" stroke:none;fill-rule:nonzero;fill:rgb(52.156863%,20.392157%,3.921569%);fill-opacity:1;" d="M 390.824219 929.039062 L 499.773438 879.140625 L 387.425781 920.941406 M 451.375 913.992188 C 474.523438 912.839844 484.824219 899.691406 505.925781 902.289062 C 489.222656 896.640625 476.273438 910.289062 451.625 909.492188 "/>
<path style=" stroke:none;fill-rule:nonzero;fill:rgb(52.156863%,20.392157%,3.921569%);fill-opacity:1;" d="M 389.097656 929.472656 L 508.847656 925.070312 L 389.097656 920.722656 M 450.847656 938.722656 C 472.695312 946.519531 487.195312 938.320312 505.746094 948.769531 C 492.496094 937.121094 475.296875 944.820312 452.796875 934.671875 "/>
<path style=" stroke:none;fill-rule:nonzero;fill:rgb(52.156863%,20.392157%,3.921569%);fill-opacity:1;" d="M 387.40625 929.222656 L 499.707031 971.023438 L 390.707031 921.125 M 440.855469 961.375 C 458.054688 976.921875 474.605469 974.921875 487.707031 991.671875 C 479.90625 975.875 461.105469 976.375 444.207031 958.375 "/>
<path style=" stroke:none;fill-rule:nonzero;fill:rgb(52.156863%,20.392157%,3.921569%);fill-opacity:1;" d="M 385.90625 928.332031 L 473.707031 1009.933594 L 392.058594 922.132812 M 423.007812 978.484375 C 432.957031 999.433594 449.007812 1003.882812 454.707031 1024.382812 C 453.558594 1006.78125 435.957031 1000.03125 427.257812 976.984375 "/>
<path style=" stroke:none;fill-rule:nonzero;fill:rgb(96.470588%,70.588235%,5.490196%);fill-opacity:1;" d="M 388.910156 853.898438 C 428.160156 853.898438 460.007812 885.746094 460.007812 924.996094 C 460.007812 964.246094 428.160156 996.097656 388.910156 996.097656 C 349.660156 996.097656 317.808594 964.246094 317.808594 924.996094 C 317.808594 885.746094 349.609375 853.898438 388.910156 853.898438 "/>
<path style="fill:none;stroke-width:6.142;stroke-linecap:butt;stroke-linejoin:miter;stroke:rgb(52.156863%,20.392157%,3.921569%);stroke-opacity:1;stroke-miterlimit:4;" d="M 449.701512 761.003075 C 528.201513 761.003075 591.896825 824.698387 591.896825 903.198387 C 591.896825 981.698387 528.201513 1045.401513 449.701512 1045.401513 C 371.201512 1045.401513 307.498387 981.698387 307.498387 903.198387 C 307.498387 824.698387 371.09995 761.003075 449.701512 761.003075 Z M 449.701512 761.003075 " transform="matrix(0.5,0,0,0.5,164.0594,473.3969)"/>
<path style=" stroke:none;fill-rule:nonzero;fill:rgb(51.764706%,20.784314%,6.666667%);fill-opacity:1;" d="M 413.074219 910.890625 C 417.824219 910.792969 422.222656 912.992188 422.824219 915.140625 C 417.371094 921.140625 408.621094 920.640625 403.121094 916.242188 C 405.523438 912.441406 409.371094 910.992188 413.074219 910.890625 Z M 413.121094 909.792969 C 408.273438 909.792969 403.621094 911.890625 400.871094 916.292969 C 406.324219 921.191406 418.421875 921.742188 426.621094 915.742188 C 423.074219 911.890625 417.972656 909.792969 413.121094 909.792969 Z M 413.121094 909.792969 "/>
<path style=" stroke:none;fill-rule:nonzero;fill:rgb(52.156863%,20.392157%,3.921569%);fill-opacity:1;" d="M 414.023438 906.441406 C 406.921875 906.441406 405.273438 908.089844 401.972656 910.839844 C 398.671875 913.589844 397.074219 913.039062 396.523438 913.589844 C 395.972656 914.140625 396.523438 915.789062 397.625 915.242188 C 398.722656 914.691406 400.921875 913.589844 404.171875 910.890625 C 407.472656 908.140625 410.722656 908.140625 414.023438 908.140625 C 423.875 908.140625 429.324219 916.339844 430.421875 915.789062 C 431.523438 915.140625 424.972656 906.441406 414.023438 906.441406 Z M 414.023438 906.441406 "/>
<path style=" stroke:none;fill-rule:nonzero;fill:rgb(52.156863%,20.392157%,3.921569%);fill-opacity:1;" d="M 433.746094 909.679688 C 421.144531 898.730469 405.296875 897.082031 396.546875 905.332031 C 394.394531 908.179688 393.046875 911.28125 392.445312 914.480469 C 391.347656 920.730469 393.296875 927.429688 398.144531 934.332031 C 397.597656 934.332031 396.496094 934.878906 395.945312 935.429688 C 391.597656 927.128906 390.046875 918.582031 391.496094 910.480469 C 391.847656 908.378906 392.445312 906.28125 393.195312 904.230469 C 405.296875 894.378906 421.695312 893.28125 433.746094 909.679688 Z M 433.746094 909.679688 "/>
<path style=" stroke:none;fill-rule:nonzero;fill:rgb(52.156863%,20.392157%,3.921569%);fill-opacity:1;" d="M 412.933594 910.21875 C 415.636719 910.21875 417.835938 912.417969 417.835938 915.117188 C 417.835938 917.820312 415.636719 920.019531 412.933594 920.019531 C 410.234375 920.019531 408.035156 917.820312 408.035156 915.117188 C 408.035156 912.417969 410.234375 910.21875 412.933594 910.21875 "/>
<path style=" stroke:none;fill-rule:nonzero;fill:rgb(52.156863%,20.392157%,3.921569%);fill-opacity:1;" d="M 427.175781 918.429688 C 417.875 925.53125 408.574219 924.980469 403.125 921.730469 C 397.675781 918.429688 397.675781 917.378906 398.726562 917.378906 C 399.824219 917.378906 400.925781 918.480469 405.273438 920.679688 C 409.675781 922.828125 416.226562 922.828125 427.175781 918.429688 Z M 427.175781 918.429688 "/>
<path style=" stroke:none;fill-rule:nonzero;fill:rgb(52.156863%,20.392157%,3.921569%);fill-opacity:1;" d="M 378.007812 934.828125 C 375.660156 935.277344 374.007812 937.328125 374.007812 939.726562 C 374.007812 942.425781 376.257812 944.628906 378.957031 944.628906 C 380.558594 944.628906 382.058594 943.878906 382.957031 942.527344 C 384.859375 943.925781 387.457031 944.128906 388.859375 944.128906 C 389.058594 944.128906 389.359375 944.128906 389.507812 944.128906 C 390.910156 944.128906 393.558594 943.925781 395.410156 942.527344 C 396.308594 943.828125 397.808594 944.628906 399.410156 944.628906 C 402.109375 944.628906 404.359375 942.476562 404.359375 939.726562 C 404.359375 937.328125 402.707031 935.277344 400.359375 934.828125 C 401.660156 935.277344 402.507812 936.578125 402.507812 937.925781 C 402.507812 939.726562 401.058594 941.226562 399.207031 941.226562 C 397.457031 941.226562 396.007812 939.828125 395.910156 938.128906 C 395.359375 939.175781 393.257812 942.378906 389.109375 942.527344 C 384.957031 942.378906 382.859375 939.175781 382.308594 938.128906 C 382.207031 939.878906 380.757812 941.226562 379.007812 941.226562 C 377.207031 941.226562 375.707031 939.777344 375.707031 937.925781 C 375.859375 936.578125 376.707031 935.277344 378.007812 934.828125 Z M 378.007812 934.828125 "/>
<path style=" stroke:none;fill-rule:nonzero;fill:rgb(52.156863%,20.392157%,3.921569%);fill-opacity:1;" d="M 383.347656 949.402344 C 377.898438 949.402344 375.699219 954.351562 370.796875 957.652344 C 373.546875 956.550781 375.699219 954.402344 379.5 952.203125 C 383.347656 950 386.597656 952.703125 388.796875 952.703125 L 388.898438 952.703125 C 391.097656 952.703125 394.347656 950.050781 398.199219 952.203125 C 402.046875 954.402344 404.25 956.550781 407 957.652344 C 402.097656 954.351562 399.847656 949.402344 394.347656 949.402344 C 393.25 949.402344 391.097656 950 388.898438 951.101562 L 388.796875 951.101562 C 386.597656 950 384.449219 949.402344 383.347656 949.402344 "/>
<path style=" stroke:none;fill-rule:nonzero;fill:rgb(52.156863%,20.392157%,3.921569%);fill-opacity:1;" d="M 381.511719 955.863281 C 379.359375 955.960938 376.511719 956.410156 372.410156 957.613281 C 382.261719 955.410156 384.410156 958.710938 388.8125 958.710938 L 388.910156 958.710938 C 393.3125 958.710938 395.460938 955.410156 405.3125 957.613281 C 394.359375 954.3125 392.210938 956.511719 388.910156 956.511719 L 388.8125 956.511719 C 386.761719 956.511719 385.109375 955.710938 381.511719 955.863281 Z M 381.511719 955.863281 "/>
<path style=" stroke:none;fill-rule:nonzero;fill:rgb(52.156863%,20.392157%,3.921569%);fill-opacity:1;" d="M 372.910156 957.535156 C 372.261719 957.535156 371.5625 957.535156 370.8125 957.636719 C 382.3125 958.734375 376.761719 965.335938 388.8125 965.335938 L 388.910156 965.335938 C 400.960938 965.335938 395.511719 958.734375 407.011719 957.636719 C 394.960938 956.535156 398.761719 963.636719 388.910156 963.636719 L 388.8125 963.636719 C 379.5625 963.636719 382.410156 957.4375 372.910156 957.535156 Z M 372.910156 957.535156 "/>
<path style=" stroke:none;fill-rule:nonzero;fill:rgb(52.156863%,20.392157%,3.921569%);fill-opacity:1;" d="M 398.75 975.332031 C 398.75 969.882812 394.351562 965.480469 388.902344 965.480469 C 383.449219 965.480469 379.050781 969.882812 379.050781 975.332031 C 380.152344 970.78125 384.199219 967.53125 388.902344 967.53125 C 393.601562 967.53125 397.652344 970.78125 398.75 975.332031 "/>
<path style=" stroke:none;fill-rule:nonzero;fill:rgb(52.156863%,20.392157%,3.921569%);fill-opacity:1;" d="M 344.679688 909.679688 C 357.277344 898.730469 373.128906 897.082031 381.878906 905.332031 C 384.027344 908.179688 385.378906 911.28125 385.980469 914.480469 C 387.078125 920.730469 385.128906 927.429688 380.277344 934.332031 C 380.828125 934.332031 381.929688 934.878906 382.480469 935.429688 C 386.828125 927.128906 388.378906 918.582031 386.929688 910.480469 C 386.578125 908.378906 385.980469 906.28125 385.230469 904.230469 C 373.128906 894.378906 356.730469 893.28125 344.679688 909.679688 Z M 344.679688 909.679688 "/>
<path style=" stroke:none;fill-rule:nonzero;fill:rgb(52.156863%,20.392157%,3.921569%);fill-opacity:1;" d="M 364.351562 906.441406 C 371.453125 906.441406 373.101562 908.089844 376.402344 910.839844 C 379.703125 913.589844 381.300781 913.039062 381.851562 913.589844 C 382.402344 914.140625 381.851562 915.789062 380.75 915.242188 C 379.652344 914.691406 377.453125 913.589844 374.203125 910.890625 C 370.902344 908.140625 367.652344 908.140625 364.351562 908.140625 C 354.5 908.140625 349.050781 916.339844 347.953125 915.789062 C 346.851562 915.140625 353.453125 906.441406 364.351562 906.441406 Z M 364.351562 906.441406 "/>
<path style=" stroke:none;fill-rule:nonzero;fill:rgb(51.764706%,20.784314%,6.666667%);fill-opacity:1;" d="M 363.9375 910.890625 C 368.636719 910.792969 373.085938 912.992188 373.6875 915.140625 C 368.234375 921.140625 359.484375 920.640625 353.984375 916.242188 C 356.4375 912.441406 360.285156 910.992188 363.9375 910.890625 Z M 364.035156 909.792969 C 359.1875 909.792969 354.535156 911.890625 351.785156 916.292969 C 357.234375 921.191406 369.335938 921.742188 377.535156 915.742188 C 373.984375 911.890625 368.886719 909.792969 364.035156 909.792969 Z M 364.035156 909.792969 "/>
<path style=" stroke:none;fill-rule:nonzero;fill:rgb(52.156863%,20.392157%,3.921569%);fill-opacity:1;" d="M 364.675781 910.21875 C 367.375 910.21875 369.574219 912.417969 369.574219 915.117188 C 369.574219 917.820312 367.375 920.019531 364.675781 920.019531 C 361.972656 920.019531 359.773438 917.820312 359.773438 915.117188 C 359.773438 912.417969 361.972656 910.21875 364.675781 910.21875 "/>
<path style=" stroke:none;fill-rule:nonzero;fill:rgb(52.156863%,20.392157%,3.921569%);fill-opacity:1;" d="M 351.25 918.429688 C 360.550781 925.53125 369.851562 924.980469 375.300781 921.730469 C 380.75 918.429688 380.75 917.378906 379.699219 917.378906 C 378.601562 917.378906 377.5 918.480469 373.148438 920.679688 C 368.75 922.828125 362.199219 922.828125 351.25 918.429688 Z M 351.25 918.429688 "/>
<path style="fill-rule:nonzero;fill:rgb(45.490196%,67.45098%,87.45098%);fill-opacity:1;stroke-width:2;stroke-linecap:butt;stroke-linejoin:miter;stroke:rgb(0%,0%,0%);stroke-opacity:1;stroke-miterlimit:10;" d="M 1119.198225 3894.70115 C 1125.698225 3892.599587 1127.698225 3888.70115 1125.198225 3882.998025 C 1114.90135 3868.599587 1110.502913 3898.20115 1110.502913 3871.70115 C 1087.698225 3875.099587 1109.90135 3890.802712 1119.198225 3894.70115 " transform="matrix(0.5,0,0,0.5,387.25245,25.72755)"/>
<path style="fill-rule:nonzero;fill:rgb(45.490196%,67.45098%,87.45098%);fill-opacity:1;stroke-width:2;stroke-linecap:butt;stroke-linejoin:miter;stroke:rgb(0%,0%,0%);stroke-opacity:1;stroke-miterlimit:10;" d="M 1160.7025 3794.803287 C 1162.2025 3797.701725 1163.600937 3800.701725 1165.100937 3803.600162 C 1140.29625 3813.100162 1120.397812 3789.701725 1095.897812 3791.600162 C 1107.100937 3801.600162 1116.600937 3796.9986 1124.897812 3810.397037 C 1131.397812 3820.803287 1157.29625 3828.4986 1168.2025 3832.201725 C 1149.79625 3826.803287 1133.397812 3831.4986 1115.600937 3836.600162 C 1128.29625 3855.303287 1145.79625 3824.9986 1160.499375 3842.100162 C 1151.499375 3839.897037 1147.29625 3843.9986 1149.499375 3853.100162 C 1146.600937 3849.100162 1143.600937 3844.9986 1140.7025 3841.100162 C 1140.100937 3852.100162 1126.999375 3872.897037 1148.499375 3859.701725 C 1141.79625 3876.201725 1107.7025 3874.201725 1093.7025 3878.303287 C 1099.397812 3880.9986 1148.100937 3901.9986 1117.79625 3883.803287 C 1124.499375 3882.803287 1144.499375 3905.9986 1148.79625 3897.600162 C 1155.7025 3884.201725 1177.7025 3889.897037 1168.2025 3868.600162 C 1198.897812 3878.701725 1209.600937 3844.4986 1223.600937 3824.397037 C 1228.397812 3817.4986 1234.79625 3809.100162 1235.499375 3800.397037 C 1236.29625 3790.600162 1213.29625 3779.397037 1217.600937 3801.701725 C 1204.2025 3795.397037 1174.79625 3787.4986 1160.7025 3794.803287 " transform="matrix(0.5,0,0,0.5,401.08625,40.0007)"/>
<path style="fill-rule:nonzero;fill:rgb(45.490196%,67.45098%,87.45098%);fill-opacity:1;stroke-width:2;stroke-linecap:butt;stroke-linejoin:miter;stroke:rgb(0%,0%,0%);stroke-opacity:1;stroke-miterlimit:10;" d="M 1142.8985 3790.296725 C 1149.000063 3793.601413 1155.203188 3793.898288 1161.601625 3791.398288 C 1159.203188 3782.202975 1151.796938 3778.101413 1142.8985 3781.49985 C 1146.8985 3784.49985 1151.000063 3787.398288 1155.101625 3790.296725 L 1142.8985 3790.296725 " transform="matrix(0.5,0,0,0.5,395.1445,40.6407)"/>
<path style="fill-rule:nonzero;fill:rgb(45.490196%,67.45098%,87.45098%);fill-opacity:1;stroke-width:2;stroke-linecap:butt;stroke-linejoin:miter;stroke:rgb(0%,0%,0%);stroke-opacity:1;stroke-miterlimit:10;" d="M 1157.497963 3776.502788 C 1160.8964 3779.596538 1164.8964 3781.096538 1169.497963 3780.901225 C 1165.497963 3779.401225 1161.497963 3777.901225 1157.497963 3776.502788 " transform="matrix(0.5,0,0,0.5,399.9893,42.6197)"/>
<path style="fill-rule:nonzero;fill:rgb(45.490196%,67.45098%,87.45098%);fill-opacity:1;stroke-width:2;stroke-linecap:butt;stroke-linejoin:miter;stroke:rgb(0%,0%,0%);stroke-opacity:1;stroke-miterlimit:10;" d="M 1168.602025 3767.296662 C 1174.8989 3776.702912 1193.8989 3775.702912 1202.703588 3771.702912 C 1191.500463 3768.60135 1179.797338 3769.999787 1168.602025 3767.296662 " transform="matrix(0.5,0,0,0.5,403.7068,43.9337)"/>
<path style="fill-rule:nonzero;fill:rgb(45.490196%,67.45098%,87.45098%);fill-opacity:1;stroke-width:2;stroke-linecap:butt;stroke-linejoin:miter;stroke:rgb(0%,0%,0%);stroke-opacity:1;stroke-miterlimit:10;" d="M 1202.1019 3945.497513 C 1209.898775 3938.497513 1199.797213 3933.599075 1193.398775 3934.497513 C 1196.398775 3938.200638 1199.297213 3941.8022 1202.1019 3945.497513 " transform="matrix(0.5,0,0,0.5,414.88655,18.4739)"/>
<path style="fill-rule:nonzero;fill:rgb(45.490196%,67.45098%,87.45098%);fill-opacity:1;stroke-width:2;stroke-linecap:butt;stroke-linejoin:miter;stroke:rgb(0%,0%,0%);stroke-opacity:1;stroke-miterlimit:10;" d="M 1200.203825 3920.898775 C 1215.297575 3928.203463 1226.602263 3946.000338 1245.102263 3945.000338 C 1237.5007 3940.1019 1233.297575 3931.797213 1237.5007 3923.000338 C 1248.703825 3927.297213 1259.297575 3933.703463 1271.5007 3935.000338 C 1271.703825 3920.797213 1257.0007 3913.797213 1246.203825 3908.797213 C 1259.602263 3907.297213 1268.102263 3916.203463 1280.203825 3916.203463 C 1288.5007 3916.203463 1293.297575 3910.703463 1302.102263 3913.000338 C 1301.703825 3898.000338 1273.0007 3894.703463 1264.899138 3884.500338 C 1280.602263 3893.898775 1298.5007 3895.500338 1316.297575 3893.500338 C 1327.5007 3892.203463 1343.703825 3878.898775 1327.399138 3875.797213 C 1344.0007 3878.398775 1361.5007 3874.6019 1376.797575 3868.000338 C 1372.399138 3869.1019 1334.297575 3852.398775 1329.703825 3848.297213 C 1341.203825 3842.203463 1352.899138 3849.898775 1364.703825 3847.1019 C 1354.203825 3839.000338 1305.399138 3809.398775 1304.399138 3843.898775 C 1313.703825 3845.000338 1322.297575 3849.898775 1328.5007 3857.000338 C 1315.5007 3857.398775 1275.102263 3831.703463 1303.399138 3835.000338 C 1291.703825 3814.000338 1257.797575 3815.500338 1237.602263 3817.500338 C 1244.203825 3826.797213 1238.899138 3835.203463 1229.797575 3839.398775 C 1238.399138 3840.000338 1243.602263 3844.703463 1241.797575 3853.703463 C 1237.703825 3851.6019 1233.703825 3849.398775 1229.797575 3847.000338 C 1233.399138 3859.398775 1251.5007 3861.398775 1250.703825 3875.703463 C 1232.797575 3853.6019 1197.703825 3897.500338 1211.203825 3916.297213 C 1207.5007 3918.000338 1203.899138 3919.500338 1200.203825 3920.898775 " transform="matrix(0.5,0,0,0.5,414.24965,21.9803)"/>
<path style="fill-rule:nonzero;fill:rgb(45.490196%,67.45098%,87.45098%);fill-opacity:1;stroke-width:2;stroke-linecap:butt;stroke-linejoin:miter;stroke:rgb(0%,0%,0%);stroke-opacity:1;stroke-miterlimit:10;" d="M 1269.3038 3904.0966 C 1272.39755 3907.198162 1276.100675 3909.401287 1280.3038 3910.698162 C 1276.702238 3908.401287 1272.999113 3906.299725 1269.3038 3904.0966 " transform="matrix(0.5,0,0,0.5,437.2856,24.3892)"/>
<path style="fill-rule:nonzero;fill:rgb(45.490196%,67.45098%,87.45098%);fill-opacity:1;stroke-width:2;stroke-linecap:butt;stroke-linejoin:miter;stroke:rgb(0%,0%,0%);stroke-opacity:1;stroke-miterlimit:10;" d="M 1119.198225 3894.70115 C 1125.698225 3892.599587 1127.698225 3888.70115 1125.198225 3882.998025 C 1114.90135 3868.599587 1110.502913 3898.20115 1110.502913 3871.70115 C 1087.698225 3875.099587 1109.90135 3890.802712 1119.198225 3894.70115 " transform="matrix(0.5,0,0,0.5,387.25245,25.72755)"/>
<path style="fill-rule:nonzero;fill:rgb(45.490196%,67.45098%,87.45098%);fill-opacity:1;stroke-width:2;stroke-linecap:butt;stroke-linejoin:miter;stroke:rgb(0%,0%,0%);stroke-opacity:1;stroke-miterlimit:10;" d="M 1160.7025 3794.803287 C 1162.2025 3797.701725 1163.600937 3800.701725 1165.100937 3803.600162 C 1140.29625 3813.100162 1120.397812 3789.701725 1095.897812 3791.600162 C 1107.100937 3801.600162 1116.600937 3796.9986 1124.897812 3810.397037 C 1131.397812 3820.803287 1157.29625 3828.4986 1168.2025 3832.201725 C 1149.79625 3826.803287 1133.397812 3831.4986 1115.600937 3836.600162 C 1128.29625 3855.303287 1145.79625 3824.9986 1160.499375 3842.100162 C 1151.499375 3839.897037 1147.29625 3843.9986 1149.499375 3853.100162 C 1146.600937 3849.100162 1143.600937 3844.9986 1140.7025 3841.100162 C 1140.100937 3852.100162 1126.999375 3872.897037 1148.499375 3859.701725 C 1141.79625 3876.201725 1107.7025 3874.201725 1093.7025 3878.303287 C 1099.397812 3880.9986 1148.100937 3901.9986 1117.79625 3883.803287 C 1124.499375 3882.803287 1144.499375 3905.9986 1148.79625 3897.600162 C 1155.7025 3884.201725 1177.7025 3889.897037 1168.2025 3868.600162 C 1198.897812 3878.701725 1209.600937 3844.4986 1223.600937 3824.397037 C 1228.397812 3817.4986 1234.79625 3809.100162 1235.499375 3800.397037 C 1236.29625 3790.600162 1213.29625 3779.397037 1217.600937 3801.701725 C 1204.2025 3795.397037 1174.79625 3787.4986 1160.7025 3794.803287 " transform="matrix(0.5,0,0,0.5,401.08625,40.0007)"/>
<path style="fill-rule:nonzero;fill:rgb(45.490196%,67.45098%,87.45098%);fill-opacity:1;stroke-width:2;stroke-linecap:butt;stroke-linejoin:miter;stroke:rgb(0%,0%,0%);stroke-opacity:1;stroke-miterlimit:10;" d="M 1142.8985 3790.296725 C 1149.000063 3793.601413 1155.203188 3793.898288 1161.601625 3791.398288 C 1159.203188 3782.202975 1151.796938 3778.101413 1142.8985 3781.49985 C 1146.8985 3784.49985 1151.000063 3787.398288 1155.101625 3790.296725 L 1142.8985 3790.296725 " transform="matrix(0.5,0,0,0.5,395.1445,40.6407)"/>
<path style="fill-rule:nonzero;fill:rgb(45.490196%,67.45098%,87.45098%);fill-opacity:1;stroke-width:2;stroke-linecap:butt;stroke-linejoin:miter;stroke:rgb(0%,0%,0%);stroke-opacity:1;stroke-miterlimit:10;" d="M 1157.497963 3776.502788 C 1160.8964 3779.596538 1164.8964 3781.096538 1169.497963 3780.901225 C 1165.497963 3779.401225 1161.497963 3777.901225 1157.497963 3776.502788 " transform="matrix(0.5,0,0,0.5,399.9893,42.6197)"/>
<path style="fill-rule:nonzero;fill:rgb(45.490196%,67.45098%,87.45098%);fill-opacity:1;stroke-width:2;stroke-linecap:butt;stroke-linejoin:miter;stroke:rgb(0%,0%,0%);stroke-opacity:1;stroke-miterlimit:10;" d="M 1168.602025 3767.296662 C 1174.8989 3776.702912 1193.8989 3775.702912 1202.703588 3771.702912 C 1191.500463 3768.60135 1179.797338 3769.999787 1168.602025 3767.296662 " transform="matrix(0.5,0,0,0.5,403.7068,43.9337)"/>
<path style="fill-rule:nonzero;fill:rgb(45.490196%,67.45098%,87.45098%);fill-opacity:1;stroke-width:2;stroke-linecap:butt;stroke-linejoin:miter;stroke:rgb(0%,0%,0%);stroke-opacity:1;stroke-miterlimit:10;" d="M 1202.1019 3945.497513 C 1209.898775 3938.497513 1199.797213 3933.599075 1193.398775 3934.497513 C 1196.398775 3938.200638 1199.297213 3941.8022 1202.1019 3945.497513 " transform="matrix(0.5,0,0,0.5,414.88655,18.4739)"/>
<path style="fill-rule:nonzero;fill:rgb(45.490196%,67.45098%,87.45098%);fill-opacity:1;stroke-width:2;stroke-linecap:butt;stroke-linejoin:miter;stroke:rgb(0%,0%,0%);stroke-opacity:1;stroke-miterlimit:10;" d="M 1200.203825 3920.898775 C 1215.297575 3928.203463 1226.602263 3946.000338 1245.102263 3945.000338 C 1237.5007 3940.1019 1233.297575 3931.797213 1237.5007 3923.000338 C 1248.703825 3927.297213 1259.297575 3933.703463 1271.5007 3935.000338 C 1271.703825 3920.797213 1257.0007 3913.797213 1246.203825 3908.797213 C 1259.602263 3907.297213 1268.102263 3916.203463 1280.203825 3916.203463 C 1288.5007 3916.203463 1293.297575 3910.703463 1302.102263 3913.000338 C 1301.703825 3898.000338 1273.0007 3894.703463 1264.899138 3884.500338 C 1280.602263 3893.898775 1298.5007 3895.500338 1316.297575 3893.500338 C 1327.5007 3892.203463 1343.703825 3878.898775 1327.399138 3875.797213 C 1344.0007 3878.398775 1361.5007 3874.6019 1376.797575 3868.000338 C 1372.399138 3869.1019 1334.297575 3852.398775 1329.703825 3848.297213 C 1341.203825 3842.203463 1352.899138 3849.898775 1364.703825 3847.1019 C 1354.203825 3839.000338 1305.399138 3809.398775 1304.399138 3843.898775 C 1313.703825 3845.000338 1322.297575 3849.898775 1328.5007 3857.000338 C 1315.5007 3857.398775 1275.102263 3831.703463 1303.399138 3835.000338 C 1291.703825 3814.000338 1257.797575 3815.500338 1237.602263 3817.500338 C 1244.203825 3826.797213 1238.899138 3835.203463 1229.797575 3839.398775 C 1238.399138 3840.000338 1243.602263 3844.703463 1241.797575 3853.703463 C 1237.703825 3851.6019 1233.703825 3849.398775 1229.797575 3847.000338 C 1233.399138 3859.398775 1251.5007 3861.398775 1250.703825 3875.703463 C 1232.797575 3853.6019 1197.703825 3897.500338 1211.203825 3916.297213 C 1207.5007 3918.000338 1203.899138 3919.500338 1200.203825 3920.898775 " transform="matrix(0.5,0,0,0.5,414.24965,21.9803)"/>
<path style="fill-rule:nonzero;fill:rgb(45.490196%,67.45098%,87.45098%);fill-opacity:1;stroke-width:2;stroke-linecap:butt;stroke-linejoin:miter;stroke:rgb(0%,0%,0%);stroke-opacity:1;stroke-miterlimit:10;" d="M 1269.3038 3904.0966 C 1272.39755 3907.198162 1276.100675 3909.401287 1280.3038 3910.698162 C 1276.702238 3908.401287 1272.999113 3906.299725 1269.3038 3904.0966 " transform="matrix(0.5,0,0,0.5,437.2856,24.3892)"/>
</g>
</svg>
